<svg width="737" height="262" viewBox="0 0 737 262" fill="none" xmlns="http://www.w3.org/2000/svg">
<path d="M203.492 26.3618H117.271L56.6302 113.08H119.787L146.017 71.9102V161.53H88.8947L102.159 140.725H37.2961L20.2139 165.153V215.027H141.672V229.958H203.492V215.027H233.135V161.53H203.492V26.3618Z" fill="#2F9BFF"/>
<path d="M203.492 247.544H141.672V262H203.492V247.544Z" fill="#2F9BFF"/>
<path d="M365.096 203.104C358.095 203.104 352.025 201.714 346.835 198.953C341.646 196.192 337.67 192.763 334.908 188.648C332.128 184.55 329.911 179.134 328.223 172.38C326.534 165.645 325.443 159.138 324.968 152.86C324.475 146.599 324.247 139.125 324.247 130.455C324.247 121.925 324.475 114.557 324.95 108.349H264.397C263.817 115.401 263.518 122.752 263.518 130.455C263.518 149.729 265.33 167.017 268.936 182.317C272.543 197.617 278.207 211.281 285.93 223.328C293.636 235.374 304.191 244.642 317.562 251.149C330.932 257.656 346.783 260.91 365.096 260.91C383.41 260.91 399.261 257.656 412.631 251.149C426.001 244.642 436.539 235.374 444.262 223.328C448.731 216.346 452.496 208.802 455.592 200.729H379.364C375.106 202.312 370.356 203.104 365.096 203.104Z" fill="#2F9BFF"/>
<path d="M334.907 72.2795C337.669 68.1819 341.645 64.7526 346.835 61.974C352.025 59.2129 358.094 57.8236 365.096 57.8236C372.08 57.8236 378.167 59.2129 383.357 61.974C388.529 64.7526 392.505 68.1819 395.285 72.2795C398.064 76.3771 400.281 81.7937 401.97 88.5468C403.659 95.2999 404.749 101.807 405.224 108.068C405.699 114.328 405.946 121.802 405.946 130.472C405.946 139.142 405.699 146.617 405.224 152.877C404.732 159.156 403.659 165.645 401.97 172.398C401.636 173.735 401.266 175.018 400.897 176.249H462.576C465.303 162.497 466.692 147.25 466.692 130.49C466.692 111.215 464.88 93.9282 461.256 78.6281C457.65 63.3281 451.985 49.6636 444.262 37.617C436.539 25.5704 426.001 16.3025 412.631 9.79554C399.243 3.25346 383.41 0 365.096 0C346.782 0 330.932 3.25346 317.561 9.76037C304.191 16.2673 293.636 25.5352 285.93 37.5818C278.207 49.6284 272.56 63.3105 268.936 78.593C268.813 79.0854 268.725 79.5778 268.619 80.0702H330.914C332.075 77.0981 333.412 74.4954 334.907 72.2795Z" fill="#2F9BFF"/>
<path d="M102.705 113.08H39.548L20.2139 140.725H85.0772L102.705 113.08Z" fill="#2F9BFF"/>
<path d="M216.071 229.958H154.251V247.544H216.071V229.958Z" fill="#2F9BFF"/>
<path d="M224.251 1.8114H155.2L138.03 26.3618H224.251V1.8114Z" fill="#2F9BFF"/>
<path d="M691.295 26.3618H605.074L544.433 113.08H607.59L633.82 71.9102V161.53H576.698L589.962 140.725H525.099L508.017 165.153V215.027H629.475V229.958H691.295V215.027H720.938V161.53H691.295V26.3618Z" fill="#2F9BFF"/>
<path d="M691.295 247.544H629.476V262H691.295V247.544Z" fill="#2F9BFF"/>
<path d="M590.508 113.08H527.351L508.017 140.725H572.88L590.508 113.08Z" fill="#2F9BFF"/>
<path d="M703.874 229.958H642.054V247.544H703.874V229.958Z" fill="#2F9BFF"/>
<path d="M712.037 1.8114H642.987L625.816 26.3618H712.037V1.8114Z" fill="#2F9BFF"/>
<path d="M311.527 108.05C312.002 101.789 313.093 95.2824 314.781 88.5292C315.555 85.4341 316.453 82.6203 317.455 80.0703H255.161C253.173 88.8458 251.765 98.272 250.938 108.349H311.492C311.509 108.261 311.509 108.156 311.527 108.05Z" fill="#2F9BFF"/>
<path d="M474.345 176.232H412.666C411.135 181.209 409.271 185.359 407.054 188.648C404.274 192.745 400.298 196.175 395.126 198.953C393.842 199.639 392.523 200.237 391.133 200.747H467.361C469.595 194.891 471.513 188.771 473.026 182.334C473.501 180.329 473.94 178.289 474.345 176.232Z" fill="#2F9BFF"/>
<path d="M183.278 26.3618H97.0751L36.4163 113.08H99.5732L125.804 71.9102V161.53H68.6809L81.9456 140.725H17.0823L0 165.153V215.027H121.476V229.958H183.278V215.027H212.921V161.53H183.278V26.3618Z" fill="#FFB609"/>
<path d="M183.295 247.544H121.476V262H183.295V247.544Z" fill="#FFB609"/>
<path d="M344.882 203.104C337.881 203.104 331.811 201.714 326.621 198.953C321.432 196.192 317.456 192.763 314.694 188.648C311.914 184.55 309.698 179.134 308.009 172.38C306.32 165.645 305.229 159.138 304.754 152.86C304.261 146.599 304.033 139.125 304.033 130.455C304.033 121.925 304.262 114.557 304.736 108.349H244.183C243.603 115.401 243.304 122.752 243.304 130.455C243.304 149.729 245.116 167.017 248.722 182.317C252.329 197.617 257.993 211.281 265.716 223.328C273.422 235.374 283.977 244.642 297.348 251.149C310.718 257.656 326.569 260.91 344.882 260.91C363.196 260.91 379.047 257.656 392.417 251.149C405.787 244.642 416.325 235.374 424.048 223.328C428.517 216.346 432.282 208.802 435.378 200.729H359.15C354.893 202.312 350.143 203.104 344.882 203.104Z" fill="#FFB609"/>
<path d="M314.694 72.2795C317.456 68.1819 321.432 64.7526 326.621 61.974C331.811 59.2129 337.88 57.8236 344.882 57.8236C351.866 57.8236 357.953 59.2129 363.143 61.974C368.315 64.7526 372.291 68.1819 375.071 72.2795C377.85 76.3771 380.067 81.7937 381.756 88.5468C383.445 95.2999 384.536 101.807 385.011 108.068C385.486 114.328 385.732 121.802 385.732 130.472C385.732 139.142 385.486 146.617 385.011 152.877C384.518 159.156 383.445 165.645 381.756 172.398C381.422 173.735 381.052 175.018 380.683 176.249H442.362C445.089 162.497 446.479 147.25 446.479 130.49C446.479 111.215 444.667 93.9282 441.042 78.6281C437.436 63.3281 431.771 49.6636 424.048 37.617C416.325 25.5704 405.787 16.3025 392.417 9.79554C379.029 3.25346 363.196 0 344.882 0C326.568 0 310.718 3.25346 297.347 9.76037C283.977 16.2673 273.422 25.5352 265.716 37.5818C257.993 49.6284 252.346 63.3105 248.722 78.593C248.599 79.0854 248.511 79.5778 248.405 80.0702H310.7C311.861 77.0981 313.198 74.4954 314.694 72.2795Z" fill="#FFB609"/>
<path d="M82.4909 113.08H19.3341L0 140.725H64.8633L82.4909 113.08Z" fill="#FFB609"/>
<path d="M195.857 229.958H134.037V247.544H195.857V229.958Z" fill="#FFB609"/>
<path d="M204.037 1.8114H134.987L117.816 26.3618H204.037V1.8114Z" fill="#FFB609"/>
<path d="M671.081 26.3618H584.86L524.219 113.08H587.376L613.606 71.9102V161.53H556.484L569.748 140.725H504.885L487.803 165.153V215.027H609.261V229.958H671.081V215.027H700.724V161.53H671.081V26.3618Z" fill="#FFB609"/>
<path d="M671.081 247.544H609.262V262H671.081V247.544Z" fill="#FFB609"/>
<path d="M570.294 113.08H507.137L487.803 140.725H552.666L570.294 113.08Z" fill="#FFB609"/>
<path d="M683.66 229.958H621.84V247.544H683.66V229.958Z" fill="#FFB609"/>
<path d="M691.823 1.8114H622.773L605.62 26.3618H691.823V1.8114Z" fill="#FFB609"/>
<path d="M291.313 108.05C291.788 101.789 292.879 95.2824 294.568 88.5292C295.342 85.4341 296.239 82.6203 297.242 80.0703H234.947C232.959 88.8458 231.551 98.272 230.725 108.349H291.278C291.295 108.261 291.295 108.156 291.313 108.05Z" fill="#FFB609"/>
<path d="M454.131 176.232H392.452C390.922 181.209 389.057 185.359 386.84 188.648C384.061 192.745 380.085 196.175 374.912 198.953C373.628 199.639 372.309 200.237 370.919 200.747H447.147C449.399 194.891 451.299 188.771 452.812 182.334C453.287 180.329 453.727 178.289 454.131 176.232Z" fill="#FFB609"/>
<path d="M192.179 26.3618H105.959L45.3177 113.08H108.475L134.705 71.9102V161.53H77.5822L90.8469 140.725H25.9836L8.90137 165.153V215.027H130.36V229.958H192.179V215.027H221.823V161.53H192.179V26.3618Z" fill="#101828"/>
<path d="M192.179 247.544H130.359V262H192.179V247.544Z" fill="#101828"/>
<path d="M353.766 203.104C346.764 203.104 340.695 201.714 335.505 198.953C330.316 196.192 326.34 192.763 323.578 188.648C320.798 184.55 318.581 179.134 316.892 172.38C315.204 165.645 314.113 159.138 313.638 152.86C313.145 146.599 312.917 139.125 312.917 130.455C312.917 121.925 313.145 114.557 313.62 108.349H253.067C252.487 115.401 252.188 122.752 252.188 130.455C252.188 149.729 253.999 167.017 257.606 182.317C261.212 197.617 266.877 211.281 274.6 223.328C282.306 235.374 292.861 244.642 306.231 251.149C319.602 257.656 335.452 260.91 353.766 260.91C372.08 260.91 387.931 257.656 401.301 251.149C414.671 244.642 425.209 235.374 432.932 223.328C437.401 216.346 441.165 208.802 444.262 200.729H368.034C363.794 202.312 359.044 203.104 353.766 203.104Z" fill="#101828"/>
<path d="M323.595 72.2795C326.357 68.1819 330.333 64.7526 335.523 61.974C340.712 59.2129 346.782 57.8236 353.784 57.8236C360.768 57.8236 366.855 59.2129 372.045 61.974C377.217 64.7526 381.193 68.1819 383.972 72.2795C386.752 76.3771 388.968 81.7937 390.657 88.5468C392.346 95.2999 393.437 101.807 393.912 108.068C394.387 114.328 394.633 121.802 394.633 130.472C394.633 139.142 394.387 146.617 393.912 152.877C393.419 159.156 392.346 165.645 390.657 172.398C390.323 173.735 389.954 175.018 389.584 176.249H451.263C453.99 162.497 455.38 147.25 455.38 130.49C455.38 111.215 453.568 93.9282 449.944 78.6281C446.337 63.3281 440.673 49.6636 432.95 37.617C425.226 25.5704 414.689 16.3025 401.318 9.79554C387.93 3.25346 372.08 0 353.766 0C335.452 0 319.601 3.25346 306.231 9.76037C292.861 16.2673 282.306 25.5352 274.6 37.5818C266.877 49.6284 261.23 63.3105 257.606 78.593C257.483 79.0854 257.395 79.5778 257.289 80.0702H319.584C320.763 77.0981 322.082 74.4954 323.595 72.2795Z" fill="#101828"/>
<path d="M91.3923 113.08H28.2355L8.90137 140.725H73.7647L91.3923 113.08Z" fill="#101828"/>
<path d="M204.758 229.958H142.938V247.544H204.758V229.958Z" fill="#101828"/>
<path d="M212.921 1.8114H143.87L126.7 26.3618H212.921V1.8114Z" fill="#101828"/>
<path d="M679.982 26.3618H593.762L533.12 113.08H596.277L622.508 71.9102V161.53H565.385L578.65 140.725H513.786L496.704 165.153V215.027H618.162V229.958H679.982V215.027H709.625V161.53H679.982V26.3618Z" fill="#101828"/>
<path d="M679.983 247.544H618.163V262H679.983V247.544Z" fill="#101828"/>
<path d="M579.195 113.08H516.038L496.704 140.725H561.567L579.195 113.08Z" fill="#101828"/>
<path d="M692.561 229.958H630.741V247.544H692.561V229.958Z" fill="#101828"/>
<path d="M700.724 1.8114H631.674L614.504 26.3618H700.724V1.8114Z" fill="#101828"/>
<path d="M300.214 108.05C300.689 101.789 301.78 95.2824 303.469 88.5292C304.243 85.4341 305.14 82.6203 306.143 80.0703H243.848C241.86 88.8458 240.453 98.272 239.626 108.349H300.179C300.197 108.261 300.197 108.156 300.214 108.05Z" fill="#101828"/>
<path d="M463.033 176.232H401.353C399.823 181.209 397.958 185.359 395.741 188.648C392.962 192.745 388.986 196.175 383.814 198.953C382.53 199.639 381.21 200.237 379.82 200.747H456.048C458.283 194.891 460.2 188.771 461.713 182.334C462.188 180.329 462.628 178.289 463.033 176.232Z" fill="#101828"/>
<path d="M102.687 77.6433H31.8945V80.0878H102.687V77.6433Z" fill="#101828"/>
<path d="M102.687 80.0878H31.8945V82.5323H102.687V80.0878Z" fill="#101828"/>
<path d="M25.6319 77.6433H23.1865V80.0878H25.6319V77.6433Z" fill="#FFB609"/>
<path d="M18.6827 77.6433H16.2373V80.0878H18.6827V77.6433Z" fill="#FFB609"/>
<path d="M10.2912 77.6433H0.474609V80.0878H10.2912V77.6433Z" fill="#FFB609"/>
<path d="M559.123 154.53H488.331V156.975H559.123V154.53Z" fill="#101828"/>
<path d="M559.123 156.975H488.331V159.419H559.123V156.975Z" fill="#101828"/>
<path d="M482.051 154.53H479.605V156.975H482.051V154.53Z" fill="#FFB609"/>
<path d="M475.102 154.53H472.656V156.975H475.102V154.53Z" fill="#FFB609"/>
<path d="M167.959 249.996H238.751V247.552H167.959V249.996Z" fill="#101828"/>
<path d="M167.959 252.44H238.751V249.996H167.959V252.44Z" fill="#101828"/>
<path d="M245.013 249.996H247.458V247.552H245.013V249.996Z" fill="#2F9BFF"/>
<path d="M251.969 249.996H254.414V247.552H251.969V249.996Z" fill="#2F9BFF"/>
<path d="M260.354 249.996H270.171V247.552H260.354V249.996Z" fill="#2F9BFF"/>
<path d="M391.146 19.3116L461.938 19.3116V16.8672L391.146 16.8672V19.3116Z" fill="#101828"/>
<path d="M648.26 80.0778L719.052 80.0778V77.6333L648.26 77.6333V80.0778Z" fill="#101828"/>
<path d="M661.651 190.932H732.443V188.487H661.651V190.932Z" fill="#101828"/>
<path d="M248.814 227.421H319.605V224.977H248.814V227.421Z" fill="#101828"/>
<path d="M473.184 91.2023H470.105V94.2799H473.184V91.2023Z" fill="#2F9BFF"/>
<path d="M482.525 91.2023H479.446V94.2799H482.525V91.2023Z" fill="#2F9BFF"/>
<path d="M596.26 11.009H593.182V14.0866H596.26V11.009Z" fill="#FFB609"/>
<path d="M727.975 77.3267H724.896V80.4043H727.975V77.3267Z" fill="#101828"/>
<path d="M737 77.3267H733.921V80.4043H737V77.3267Z" fill="#101828"/>
<path d="M605.62 11.009H602.541V14.0866H605.62V11.009Z" fill="#FFB609"/>
</svg>
