<svg width="96" height="96" viewBox="0 0 96 96" fill="none" xmlns="http://www.w3.org/2000/svg">
<path d="M20.7998 15H10.5173C9.39635 15 8.48779 15.9086 8.48779 17.0295V23.1951H22.8293V17.0295C22.8293 15.9086 21.9205 15 20.7998 15Z" fill="#FF0D0C"/>
<path d="M65.5653 18.2195C65.0443 16.3181 63.3162 15 61.3448 15H34.6552C32.6838 15 30.9557 16.3183 30.4347 18.2195C29.9136 20.1208 28.1855 21.4389 26.2141 21.4389H4.376C1.95922 21.4391 0 23.3984 0 25.8151V76.185C0 78.6017 1.95922 80.561 4.376 80.561H91.624C94.0408 80.561 96 78.6017 96 76.185V25.8151C96 23.3984 94.0408 21.4391 91.624 21.4391H69.7857C67.8142 21.4391 66.0862 20.1208 65.5653 18.2195Z" fill="#2ACCA3"/>
<path d="M47.9999 75.2926C61.4164 75.2926 72.2926 64.4164 72.2926 50.9999C72.2926 37.5835 61.4164 26.7073 47.9999 26.7073C34.5835 26.7073 23.7073 37.5835 23.7073 50.9999C23.7073 64.4164 34.5835 75.2926 47.9999 75.2926Z" fill="white"/>
<path d="M48.0001 68.908C57.8904 68.908 65.9082 60.8903 65.9082 51C65.9082 41.1096 57.8904 33.0919 48.0001 33.0919C38.1097 33.0919 30.092 41.1096 30.092 51C30.092 60.8903 38.1097 68.908 48.0001 68.908Z" fill="#2F9BFF"/>
</svg>
