<svg width="96" height="96" viewBox="0 0 96 96" fill="none" xmlns="http://www.w3.org/2000/svg">
<rect x="5" y="5" width="88" height="88" rx="44" fill="#2ACCA3"/>
<path d="M52.0031 40.4053C57.2991 36.6467 63.4974 34.3607 69.9656 33.7801L79.8673 32.8916C85.0495 32.4265 89.8058 29.8305 93 25.7236L87.5904 47.2415C83.5013 63.5067 62.6204 68.1595 52.0127 55.1689C50.4564 53.263 47.5436 53.263 45.9873 55.1689L45.2121 56.1182C34.9244 68.7167 14.674 64.2044 10.7084 48.4301L5 25.7236C8.19442 29.8305 12.9508 32.4268 18.1327 32.8916L28.0344 33.7801C34.5026 34.3607 40.7009 36.6467 45.9969 40.4053C47.7955 41.6817 50.2042 41.6817 52.0031 40.4053Z" fill="white"/>
<path d="M40.4146 47.5446C40.4146 47.5446 32.9023 40.7479 19.6667 42.8943C20.0245 51.1217 30.0405 57.9184 40.4146 47.5446Z" fill="#2F9BFF"/>
<path d="M57.5851 47.5446C57.5851 47.5446 65.0975 40.7479 78.333 42.8943C77.9756 51.1217 67.9592 57.9184 57.5851 47.5446Z" fill="#2F9BFF"/>
<path d="M51.5 67.2791C50.1192 67.2791 49 68.3533 49 69.6787C49 68.3533 47.8808 67.2791 46.5 67.2791C45.1192 67.2791 44 68.3533 44 69.6787V70.4798C44 73.1302 46.2384 75.2791 49 75.2791C51.7616 75.2791 54 73.1302 54 70.4798V69.6787C53.9997 68.3533 52.8805 67.2791 51.5 67.2791Z" fill="#FF0D0C"/>
</svg>
