<svg width="96" height="96" viewBox="0 0 96 96" fill="none" xmlns="http://www.w3.org/2000/svg">
<path d="M91.8954 31.4675C91.966 32.2332 92 33.0043 92 33.7726C92 38.1964 90.87 42.6148 88.6072 46.5641C85.1185 44.968 83.6946 41.821 78.0815 41.821C70.5587 41.821 70.5587 47.4709 63.0387 47.4709C55.5188 47.4709 55.5188 41.821 47.9959 41.821C40.476 41.821 40.476 47.4709 32.9559 47.4709C25.4357 47.4709 25.4359 41.821 17.9131 41.821C12.3 41.821 10.8761 44.968 7.39005 46.5611C5.12995 42.612 4 38.1937 4 33.7726C4 33.0043 4.03395 32.233 4.10456 31.4675C10.4183 30.8856 10.828 25.8713 17.9128 25.8713C25.4357 25.8713 25.4357 31.5213 32.9556 31.5213C40.4756 31.5213 40.4756 25.8713 47.9957 25.8713C55.5186 25.8713 55.5186 31.5213 63.0385 31.5213C70.5585 31.5213 70.5585 25.8713 78.0813 25.8713C85.1693 25.8713 85.5761 30.8885 91.8954 31.4675Z" fill="white"/>
<path d="M91.8955 31.4675C85.5761 30.8885 85.1693 25.8713 78.0816 25.8713C70.5587 25.8713 70.5587 31.5213 63.0388 31.5213C55.5188 31.5213 55.5188 25.8713 47.996 25.8713C40.4761 25.8713 40.4761 31.5213 32.9559 31.5213C25.4358 31.5213 25.436 25.8713 17.9131 25.8713C10.8281 25.8713 10.4186 30.8856 4.10482 31.4675C4.62158 25.6595 7.10476 19.9927 11.5483 15.5489C21.6135 5.4837 37.9333 5.4837 47.9987 15.5489C53.0327 10.5178 59.6262 8.00063 66.2253 8.00063C72.8188 8.00063 79.4179 10.5178 84.4491 15.5489C88.8953 19.9927 91.3785 25.6595 91.8955 31.4675Z" fill="#2ACCA3"/>
<path d="M78.0816 41.821C83.6947 41.821 85.1185 44.968 88.6073 46.5641C87.4971 48.5105 86.11 50.3382 84.4489 51.9993L78.6633 57.7849C78.474 57.7736 78.282 57.7707 78.0814 57.7707C70.5585 57.7707 70.5585 63.4206 63.0386 63.4206C55.5187 63.4206 55.5187 57.7707 47.9958 57.7707C40.4759 57.7707 40.4759 63.4206 32.9557 63.4206C25.4356 63.4206 25.4358 57.7707 17.9129 57.7707C17.7123 57.7707 17.5203 57.7736 17.331 57.7819L11.5483 51.9993C9.88726 50.3382 8.50299 48.5076 7.38992 46.5612C10.876 44.968 12.2996 41.821 17.9129 41.821C25.4358 41.821 25.4358 47.471 32.9557 47.471C40.4757 47.471 40.4757 41.821 47.9958 41.821C55.5187 41.821 55.5187 47.471 63.0386 47.471C70.5585 47.471 70.5587 41.821 78.0816 41.821Z" fill="#2F9BFF"/>
<path d="M78.6635 57.7848L47.9987 88.4496L17.3309 57.7819C17.5203 57.7733 17.7123 57.7706 17.9129 57.7706C25.4358 57.7706 25.4358 63.4206 32.9557 63.4206C40.4756 63.4206 40.4756 57.7706 47.9958 57.7706C55.5186 57.7706 55.5186 63.4206 63.0386 63.4206C70.5585 63.4206 70.5585 57.7706 78.0814 57.7706C78.2822 57.7706 78.4742 57.7735 78.6635 57.7848Z" fill="#2ACCA3"/>
</svg>
