<svg width="172" height="32" viewBox="0 0 172 32" fill="none" xmlns="http://www.w3.org/2000/svg">
<path d="M10.1517 25.6736C8.4066 25.6736 6.90895 25.1186 5.65875 24.0088C5.30343 23.6934 4.67126 23.925 4.67126 24.4002V31.5C4.67126 31.7761 4.44741 32 4.17126 32H0.5C0.223858 32 0 31.7761 0 31.5V7.96667C0 7.69053 0.223858 7.46667 0.5 7.46667H4.17126C4.44741 7.46667 4.67126 7.69053 4.67126 7.96667V8.25756C4.67126 8.73316 5.30622 8.96585 5.6637 8.65216C6.89971 7.56758 8.39571 7.02529 10.1517 7.02529C12.4812 7.02529 14.3693 7.859 15.8161 9.52644C17.2874 11.1693 18.023 13.4375 18.023 16.331C18.023 19.2245 17.2874 21.505 15.8161 23.1724C14.3693 24.8398 12.4812 25.6736 10.1517 25.6736ZM8.68046 21.5172C10.0291 21.5172 11.108 21.0391 11.9172 20.0828C12.751 19.1264 13.1678 17.8759 13.1678 16.331C13.1678 14.8107 12.751 13.5724 11.9172 12.6161C11.108 11.6598 10.0291 11.1816 8.68046 11.1816C7.92031 11.1816 7.16015 11.3778 6.4 11.7701C5.69743 12.1327 5.15196 12.5687 4.76359 13.0779C4.70169 13.1591 4.67126 13.2593 4.67126 13.3614V19.3374C4.67126 19.4395 4.70169 19.5398 4.76359 19.6209C5.15196 20.1302 5.69743 20.5661 6.4 20.9287C7.18467 21.3211 7.94483 21.5172 8.68046 21.5172Z" fill="url(#paint0_linear)"/>
<path d="M23.7612 5.55402C23.001 5.55402 22.339 5.28429 21.775 4.74483C21.2355 4.18084 20.9658 3.51877 20.9658 2.75862C20.9658 1.99847 21.2355 1.34866 21.775 0.809196C22.339 0.269732 23.001 0 23.7612 0C24.5459 0 25.2079 0.269732 25.7474 0.809196C26.2869 1.34866 26.5566 1.99847 26.5566 2.75862C26.5566 3.51877 26.2869 4.18084 25.7474 4.74483C25.2079 5.28429 24.5459 5.55402 23.7612 5.55402ZM26.1152 24.7322C26.1152 25.0083 25.8914 25.2322 25.6152 25.2322H21.944C21.6678 25.2322 21.444 25.0083 21.444 24.7322V7.96667C21.444 7.69053 21.6678 7.46667 21.944 7.46667H25.6152C25.8914 7.46667 26.1152 7.69052 26.1152 7.96667V24.7322Z" fill="url(#paint1_linear)"/>
<path d="M46.4195 24.4461C46.6507 24.7776 46.4135 25.2322 46.0094 25.2322H42.0106C41.8444 25.2322 41.6891 25.1496 41.5961 25.0119L38.1114 19.8482C37.9137 19.5552 37.4827 19.5542 37.2837 19.8464L33.7649 25.0136C33.6718 25.1504 33.5171 25.2322 33.3517 25.2322H29.382C28.9791 25.2322 28.7416 24.7801 28.9703 24.4484L34.5245 16.3933C34.642 16.2228 34.6423 15.9976 34.5253 15.8268L29.3339 8.24926C29.1065 7.91744 29.3441 7.46667 29.7463 7.46667H33.7541C33.9207 7.46667 34.0764 7.54967 34.1693 7.68803L37.2816 12.3254C37.4802 12.6214 37.9159 12.6204 38.1132 12.3235L41.1919 7.68996C41.2845 7.55049 41.4409 7.46667 41.6083 7.46667H45.6112C46.0141 7.46667 46.2516 7.91875 46.0229 8.25045L40.8014 15.8249C40.683 15.9966 40.6837 16.2237 40.803 16.3947L46.4195 24.4461Z" fill="url(#paint2_linear)"/>
<path d="M56.3738 25.6736C53.6275 25.6736 51.3593 24.8153 49.5692 23.0988C47.7792 21.3824 46.8842 19.1264 46.8842 16.331C46.8842 13.7073 47.7424 11.5004 49.4589 9.71034C51.1999 7.92031 53.4068 7.02529 56.0796 7.02529C58.7279 7.02529 60.8735 7.93257 62.5164 9.74713C64.1593 11.5372 64.9807 13.8912 64.9807 16.8092V17.3391C64.9807 17.6152 64.7569 17.8391 64.4807 17.8391H52.3425C52.0418 17.8391 51.8067 18.1038 51.8777 18.396C52.1042 19.329 52.5976 20.1241 53.3577 20.7816C54.265 21.5663 55.442 21.9586 56.8888 21.9586C57.6735 21.9586 58.5194 21.7992 59.4267 21.4805C60.1188 21.2437 60.7026 20.9461 61.1783 20.5876C61.4284 20.399 61.797 20.4324 61.9737 20.6911L63.4492 22.8516C63.5894 23.0569 63.5585 23.3352 63.367 23.4937C61.6107 24.9469 59.2797 25.6736 56.3738 25.6736ZM59.9187 14.6759C60.2092 14.6759 60.4414 14.428 60.3848 14.1431C60.2268 13.3474 59.8462 12.6177 59.2428 11.954C58.5317 11.1448 57.4773 10.7402 56.0796 10.7402C54.7555 10.7402 53.7256 11.1448 52.9899 11.954C52.3892 12.5948 51.9928 13.3174 51.8009 14.1218C51.7314 14.4131 51.9661 14.6759 52.2656 14.6759H59.9187Z" fill="url(#paint3_linear)"/>
<path d="M73.0261 24.7322C73.0261 25.0083 72.8023 25.2322 72.5261 25.2322H68.8549C68.5787 25.2322 68.3549 25.0083 68.3549 24.7322V1.19885C68.3549 0.922708 68.5787 0.69885 68.8549 0.69885H72.5261C72.8023 0.69885 73.0261 0.922708 73.0261 1.19885V24.7322Z" fill="url(#paint4_linear)"/>
<path d="M87.8098 25.6736C86.0646 25.6736 84.567 25.1186 83.3168 24.0088C82.9615 23.6934 82.3293 23.925 82.3293 24.4002V31.5C82.3293 31.7761 82.1054 32 81.8293 32H78.158C77.8819 32 77.658 31.7761 77.658 31.5V7.96667C77.658 7.69053 77.8819 7.46667 78.158 7.46667H81.8293C82.1054 7.46667 82.3293 7.69053 82.3293 7.96667V8.25756C82.3293 8.73316 82.9643 8.96585 83.3217 8.65216C84.5577 7.56758 86.0537 7.02529 87.8098 7.02529C90.1393 7.02529 92.0274 7.859 93.4741 9.52644C94.9454 11.1693 95.681 13.4375 95.681 16.331C95.681 19.2245 94.9454 21.505 93.4741 23.1724C92.0274 24.8398 90.1393 25.6736 87.8098 25.6736ZM86.3385 21.5172C87.6872 21.5172 88.7661 21.0391 89.5753 20.0828C90.409 19.1264 90.8259 17.8759 90.8259 16.331C90.8259 14.8107 90.409 13.5724 89.5753 12.6161C88.7661 11.6598 87.6872 11.1816 86.3385 11.1816C85.5783 11.1816 84.8182 11.3778 84.058 11.7701C83.3555 12.1327 82.81 12.5687 82.4216 13.0779C82.3597 13.1591 82.3293 13.2593 82.3293 13.3614V19.3374C82.3293 19.4395 82.3597 19.5398 82.4216 19.6209C82.81 20.1302 83.3555 20.5661 84.058 20.9287C84.8427 21.3211 85.6029 21.5172 86.3385 21.5172Z" fill="url(#paint5_linear)"/>
<path d="M115.801 24.7322C115.801 25.0083 115.577 25.2322 115.301 25.2322H111.63C111.353 25.2322 111.13 25.0083 111.13 24.7322V14.4184C111.13 13.2414 110.848 12.4077 110.284 11.9172C109.72 11.4268 108.898 11.1816 107.819 11.1816C106.229 11.1816 104.915 11.8363 103.876 13.1457C103.808 13.2308 103.773 13.3369 103.773 13.4456V24.7322C103.773 25.0083 103.549 25.2322 103.273 25.2322H99.602C99.3259 25.2322 99.102 25.0083 99.102 24.7322V1.19885C99.102 0.922708 99.3259 0.69885 99.602 0.69885H103.273C103.549 0.69885 103.773 0.922708 103.773 1.19885V8.40968C103.773 8.87654 104.394 9.12097 104.76 8.831C105.222 8.46507 105.751 8.13289 106.348 7.83448C107.451 7.29502 108.677 7.02529 110.026 7.02529C111.939 7.02529 113.373 7.51571 114.33 8.49655C115.31 9.4774 115.801 10.8506 115.801 12.6161V24.7322Z" fill="url(#paint6_linear)"/>
<path d="M135.519 22.9885C133.802 24.7785 131.522 25.6736 128.677 25.6736C125.833 25.6736 123.552 24.7785 121.836 22.9885C120.144 21.1739 119.298 18.9548 119.298 16.331C119.298 13.7073 120.144 11.5004 121.836 9.71034C123.552 7.92031 125.833 7.02529 128.677 7.02529C131.522 7.02529 133.802 7.92031 135.519 9.71034C137.235 11.5004 138.093 13.7073 138.093 16.331C138.093 18.9548 137.235 21.1739 135.519 22.9885ZM125.367 20.046C126.176 21.0268 127.28 21.5172 128.677 21.5172C130.075 21.5172 131.178 21.0268 131.988 20.046C132.821 19.0406 133.238 17.8023 133.238 16.331C133.238 14.8843 132.821 13.6705 131.988 12.6897C131.178 11.6843 130.075 11.1816 128.677 11.1816C127.28 11.1816 126.176 11.6843 125.367 12.6897C124.558 13.6705 124.153 14.8843 124.153 16.331C124.153 17.8023 124.558 19.0406 125.367 20.046Z" fill="url(#paint7_linear)"/>
<path d="M147.518 25.6736C145.875 25.6736 144.624 25.2567 143.766 24.423C142.908 23.5893 142.478 22.3877 142.478 20.8184V12.0494C142.478 11.7733 142.255 11.5494 141.978 11.5494H140.036C139.76 11.5494 139.536 11.3256 139.536 11.0494V7.96667C139.536 7.69053 139.76 7.46667 140.036 7.46667H141.978C142.255 7.46667 142.478 7.24281 142.478 6.96667V3.11149C142.478 2.83535 142.702 2.6115 142.978 2.6115H146.686C146.963 2.6115 147.186 2.83535 147.186 3.1115V6.96667C147.186 7.24281 147.41 7.46667 147.686 7.46667H150.291C150.567 7.46667 150.791 7.69053 150.791 7.96667V11.0494C150.791 11.3256 150.567 11.5494 150.291 11.5494H147.686C147.41 11.5494 147.186 11.7733 147.186 12.0494V19.5678C147.186 20.1318 147.334 20.5977 147.628 20.9655C147.922 21.3333 148.314 21.5172 148.805 21.5172C149.139 21.5172 149.432 21.4819 149.685 21.4113C150.053 21.3086 150.551 21.4563 150.654 21.8242L151.331 24.2315C151.383 24.4161 151.327 24.6166 151.173 24.7303C150.319 25.3591 149.101 25.6736 147.518 25.6736Z" fill="url(#paint8_linear)"/>
<path d="M169.068 22.9885C167.351 24.7785 165.071 25.6736 162.226 25.6736C159.382 25.6736 157.101 24.7785 155.385 22.9885C153.693 21.1739 152.847 18.9548 152.847 16.331C152.847 13.7073 153.693 11.5004 155.385 9.71034C157.101 7.92031 159.382 7.02529 162.226 7.02529C165.071 7.02529 167.351 7.92031 169.068 9.71034C170.784 11.5004 171.642 13.7073 171.642 16.331C171.642 18.9548 170.784 21.1739 169.068 22.9885ZM158.916 20.046C159.725 21.0268 160.828 21.5172 162.226 21.5172C163.624 21.5172 164.727 21.0268 165.536 20.046C166.37 19.0406 166.787 17.8023 166.787 16.331C166.787 14.8843 166.37 13.6705 165.536 12.6897C164.727 11.6843 163.624 11.1816 162.226 11.1816C160.828 11.1816 159.725 11.6843 158.916 12.6897C158.107 13.6705 157.702 14.8843 157.702 16.331C157.702 17.8023 158.107 19.0406 158.916 20.046Z" fill="url(#paint9_linear)"/>
<defs>
<linearGradient id="paint0_linear" x1="-0.0183813" y1="18.3357" x2="137.338" y2="16.0368" gradientUnits="userSpaceOnUse">
<stop stop-color="#2F9BFF"/>
<stop offset="1" stop-color="#2ACCA3"/>
</linearGradient>
<linearGradient id="paint1_linear" x1="-0.0183813" y1="18.3357" x2="137.338" y2="16.0368" gradientUnits="userSpaceOnUse">
<stop stop-color="#2F9BFF"/>
<stop offset="1" stop-color="#2ACCA3"/>
</linearGradient>
<linearGradient id="paint2_linear" x1="-0.0183813" y1="18.3357" x2="137.338" y2="16.0368" gradientUnits="userSpaceOnUse">
<stop stop-color="#2F9BFF"/>
<stop offset="1" stop-color="#2ACCA3"/>
</linearGradient>
<linearGradient id="paint3_linear" x1="-0.0183813" y1="18.3357" x2="137.338" y2="16.0368" gradientUnits="userSpaceOnUse">
<stop stop-color="#2F9BFF"/>
<stop offset="1" stop-color="#2ACCA3"/>
</linearGradient>
<linearGradient id="paint4_linear" x1="-0.0183813" y1="18.3357" x2="137.338" y2="16.0368" gradientUnits="userSpaceOnUse">
<stop stop-color="#2F9BFF"/>
<stop offset="1" stop-color="#2ACCA3"/>
</linearGradient>
<linearGradient id="paint5_linear" x1="-0.0183813" y1="18.3357" x2="137.338" y2="16.0368" gradientUnits="userSpaceOnUse">
<stop stop-color="#2F9BFF"/>
<stop offset="1" stop-color="#2ACCA3"/>
</linearGradient>
<linearGradient id="paint6_linear" x1="-0.0183813" y1="18.3357" x2="137.338" y2="16.0368" gradientUnits="userSpaceOnUse">
<stop stop-color="#2F9BFF"/>
<stop offset="1" stop-color="#2ACCA3"/>
</linearGradient>
<linearGradient id="paint7_linear" x1="-0.0183813" y1="18.3357" x2="137.338" y2="16.0368" gradientUnits="userSpaceOnUse">
<stop stop-color="#2F9BFF"/>
<stop offset="1" stop-color="#2ACCA3"/>
</linearGradient>
<linearGradient id="paint8_linear" x1="-0.0183813" y1="18.3357" x2="137.338" y2="16.0368" gradientUnits="userSpaceOnUse">
<stop stop-color="#2F9BFF"/>
<stop offset="1" stop-color="#2ACCA3"/>
</linearGradient>
<linearGradient id="paint9_linear" x1="-0.0183813" y1="18.3357" x2="137.338" y2="16.0368" gradientUnits="userSpaceOnUse">
<stop stop-color="#2F9BFF"/>
<stop offset="1" stop-color="#2ACCA3"/>
</linearGradient>
</defs>
</svg>
