<svg width="56" height="57" viewBox="0 0 56 57" fill="none" xmlns="http://www.w3.org/2000/svg">
<rect y="0.630859" width="56" height="56" rx="28" fill="#666B75"/>
<path fill-rule="evenodd" clip-rule="evenodd" d="M34.83 45.3222H21.17C15.9431 45.3222 11.6667 41.0686 11.6667 35.8697V21.3917C11.6667 16.1928 15.9431 11.9392 21.17 11.9392H34.83C40.0569 11.9392 44.3333 16.1928 44.3333 21.3917V35.8697C44.3333 41.0686 40.0569 45.3222 34.83 45.3222ZM34.83 42.8248C36.6874 42.8248 38.4404 42.0983 39.7662 40.7795C41.092 39.4608 41.8225 37.7172 41.8225 35.8697V21.3917C41.8225 19.5443 41.092 17.8006 39.7662 16.4819C38.4404 15.1632 36.6874 14.4366 34.83 14.4366H21.17C19.3126 14.4366 17.5596 15.1632 16.2338 16.4819C14.908 17.8006 14.1775 19.5443 14.1775 21.3917V35.8697C14.1775 37.7172 14.908 39.4608 16.2338 40.7795C17.5596 42.0983 19.3126 42.8248 21.17 42.8248H34.83ZM37.0462 28.5013C37.0462 33.4432 33.019 37.4488 28.0506 37.4488C23.0822 37.4488 19.0551 33.4432 19.0551 28.5013C19.0551 23.5595 23.0822 19.5539 28.0506 19.5539C33.019 19.5539 37.0462 23.5602 37.0462 28.5013ZM28.0072 22.6497C24.754 22.6497 22.1171 25.2725 22.1171 28.5083C22.1171 31.7441 24.754 34.3669 28.0072 34.3669C31.2604 34.3669 33.8973 31.7441 33.8973 28.5083C33.8973 25.2732 31.2604 22.6497 28.0072 22.6497ZM37.6182 17.3402C38.7702 17.5763 39.5117 18.6967 39.2743 19.8425C39.0369 20.9884 37.9106 21.7259 36.7586 21.4898C35.6065 21.2537 34.865 20.1334 35.1024 18.9875C35.3398 17.8417 36.4661 17.1041 37.6182 17.3402Z" fill="#101828"/>
</svg>
