<svg width="40" height="41" viewBox="0 0 40 41" fill="none" xmlns="http://www.w3.org/2000/svg">
<rect opacity="0.24" y="0.630859" width="40" height="40" rx="20" fill="#0F0F0F"/>
<path d="M19.9929 14.2822L19.4086 13.8369C19.3085 13.7605 19.188 13.6629 19.0965 13.5887C18.2318 12.8887 16.669 11.6461 14.4616 11.6461C13.0835 11.6461 11.7533 12.2231 10.7167 13.3103L10.7167 13.3103C9.69755 14.3791 9.08714 15.8087 9.0101 17.3403L19.9929 14.2822ZM19.9929 14.2822L20.5925 13.8578M19.9929 14.2822L20.5925 13.8578M20.5925 13.8578C20.721 13.7669 20.8838 13.6406 21.0036 13.5477L21.0087 13.5437C21.0087 13.5437 21.0087 13.5437 21.0087 13.5436C21.9646 12.8022 23.4883 11.6461 25.5388 11.6461C26.9171 11.6461 28.2472 12.223 29.2838 13.3102C30.3028 14.3791 30.9132 15.8085 30.9903 17.3404L20.5925 13.8578ZM10.2306 21.7215L10.2306 21.7216C10.9707 22.9165 13.0443 25.3701 15.2991 27.675C16.4405 28.8417 17.4816 29.8189 18.3096 30.5064L10.2306 21.7215ZM10.2306 21.7215C9.28946 20.2024 8.9333 18.8721 9.0101 17.3404L10.2306 21.7215ZM30.9903 17.3405C31.0888 19.3032 30.4135 20.68 29.7695 21.7222C29.0201 22.9349 26.9532 25.3923 24.7193 27.684C23.3632 29.0753 22.2585 30.0971 21.404 30.7639C20.976 31.0979 20.6327 31.3256 20.3686 31.4654C20.1139 31.6003 20.0057 31.614 20.0059 31.6154L30.9903 17.3405ZM20.0103 31.6156C20.0098 31.6156 20.009 31.6156 20.0079 31.6156C20.0086 31.6156 20.0096 31.6156 20.0106 31.6156L20.0103 31.6156ZM20.006 31.6155C19.9996 31.6151 19.986 31.6136 19.9607 31.6068C19.9194 31.5959 19.8386 31.5688 19.7066 31.5011C19.4348 31.3618 18.9981 31.0779 18.3097 30.5065L20.006 31.6155Z" fill="white" stroke="white" stroke-width="2"/>
</svg>
