<svg width="40" height="41" viewBox="0 0 40 41" fill="none" xmlns="http://www.w3.org/2000/svg">
<rect opacity="0.24" y="0.630859" width="40" height="40" rx="20" fill="#0F0F0F"/>
<g filter="url(#filter0_d)">
<path d="M19.9929 14.2822L19.4086 13.8369C19.3086 13.7607 19.1883 13.6632 19.0969 13.5891C18.2323 12.889 16.6694 11.6461 14.4616 11.6461C13.0835 11.6461 11.7533 12.2231 10.7167 13.3103L10.7167 13.3103C9.69755 14.3791 9.08714 15.8087 9.0101 17.3403L19.9929 14.2822ZM19.9929 14.2822L20.5925 13.8578M19.9929 14.2822L20.5925 13.8578M20.5925 13.8578C20.721 13.7669 20.8837 13.6406 21.0035 13.5477L21.0087 13.5437C21.9645 12.8023 23.4883 11.6461 25.5388 11.6461C26.9171 11.6461 28.2472 12.223 29.2838 13.3102C30.3028 14.3791 30.9132 15.8085 30.9903 17.3404L20.5925 13.8578ZM10.2306 21.7215L10.2306 21.7216C10.9707 22.9165 13.0443 25.3701 15.2991 27.675C16.4405 28.8417 17.4816 29.8189 18.3096 30.5064L10.2306 21.7215ZM10.2306 21.7215C9.28946 20.2024 8.9333 18.8721 9.0101 17.3404L10.2306 21.7215ZM20.006 31.6155C20.0059 31.6155 20.0059 31.6155 20.0059 31.6154C20.0057 31.614 20.1139 31.6003 20.3686 31.4654C20.6327 31.3256 20.976 31.0979 21.404 30.7639C22.2585 30.0971 23.3632 29.0753 24.7193 27.684C26.9532 25.3923 29.0201 22.9349 29.7695 21.7222L20.006 31.6155ZM20.006 31.6155C19.9996 31.6151 19.986 31.6136 19.9607 31.6068C19.9194 31.5959 19.8386 31.5688 19.7066 31.5011C19.4348 31.3618 18.9981 31.0779 18.3097 30.5065L20.006 31.6155ZM30.9903 17.3405C31.0888 19.3031 30.4135 20.6799 29.7696 21.7221L30.9903 17.3405ZM20.0103 31.6156C20.0098 31.6156 20.009 31.6156 20.0079 31.6156C20.0086 31.6156 20.0096 31.6156 20.0106 31.6156L20.0103 31.6156Z" stroke="white" stroke-width="2"/>
</g>
<defs>
<filter id="filter0_d" x="3" y="6.63086" width="34" height="34" filterUnits="userSpaceOnUse" color-interpolation-filters="sRGB">
<feFlood flood-opacity="0" result="BackgroundImageFix"/>
<feColorMatrix in="SourceAlpha" type="matrix" values="0 0 0 0 0 0 0 0 0 0 0 0 0 0 0 0 0 0 127 0"/>
<feOffset dy="2"/>
<feGaussianBlur stdDeviation="2.5"/>
<feColorMatrix type="matrix" values="0 0 0 0 0 0 0 0 0 0 0 0 0 0 0 0 0 0 0.12 0"/>
<feBlend mode="normal" in2="BackgroundImageFix" result="effect1_dropShadow"/>
<feBlend mode="normal" in="SourceGraphic" in2="effect1_dropShadow" result="shape"/>
</filter>
</defs>
</svg>
