<svg width="56" height="57" viewBox="0 0 56 57" fill="none" xmlns="http://www.w3.org/2000/svg">
<rect y="0.630859" width="56" height="56" rx="28" fill="#666B75"/>
<path fill-rule="evenodd" clip-rule="evenodd" d="M31.4412 20.8412C31.4412 18.9407 29.8938 17.3983 27.9982 17.3983C26.0977 17.3983 24.5553 18.9407 24.5553 20.8412C24.5553 22.7368 26.1027 24.2841 27.9982 24.2841C29.8938 24.2841 31.4412 22.7368 31.4412 20.8412ZM36.312 20.8363C36.312 25.4235 32.5855 29.15 27.9982 29.15C23.411 29.15 19.6795 25.4235 19.6795 20.8412C19.6795 16.254 23.411 12.5225 27.9982 12.5225C32.5805 12.5225 36.312 16.254 36.312 20.8363ZM36.193 33.9365C34.6855 34.8818 33.0536 35.5485 31.362 35.9365L36.0089 40.5835C36.9642 41.5337 36.9642 43.0761 36.0089 44.0264C35.0586 44.9766 33.5163 44.9766 32.566 44.0264L27.9937 39.459L23.4264 44.0264C22.9537 44.499 22.3318 44.7378 21.7049 44.7378C21.083 44.7378 20.4611 44.499 19.9835 44.0264C19.0332 43.0761 19.0332 41.5337 19.9835 40.5835L24.6304 35.9365C22.9388 35.5485 21.3069 34.8818 19.8044 33.9365C18.665 33.22 18.3217 31.7125 19.0481 30.5781C19.7646 29.4388 21.2671 29.0955 22.4064 29.8119C25.8096 31.9513 30.1928 31.9513 33.6009 29.8119C34.7402 29.0955 36.2428 29.4388 36.9592 30.5781C37.6756 31.7175 37.3323 33.22 36.193 33.9365Z" fill="white"/>
</svg>
