<svg width="32" height="32" viewBox="0 0 32 32" fill="none" xmlns="http://www.w3.org/2000/svg">
<path d="M28.0731 7.72541C28.5799 6.82666 27.7167 5.70408 26.6863 6.0635L5.02574 13.0483L5.00821 13.0539L4.9909 13.0602C3.85093 13.4747 3.63257 15.0203 4.65763 15.714C4.65807 15.7143 4.6585 15.7146 4.65893 15.7148L7.771 17.8274L8.23255 18.1407L8.74161 17.9125L18.5269 13.5272L11.6324 20.2859L11.3325 20.5799V21V23.7589C11.3325 24.8027 12.496 25.4261 13.3656 24.8525L13.5101 24.7572L13.6142 24.6188L14.6019 23.3056L17.3099 24.8531C18.021 25.3066 18.9557 25.0801 19.3955 24.3765L19.4163 24.3432L19.4344 24.3085L28.0731 7.72541Z" stroke="#666B75" stroke-width="2"/>
</svg>
