<svg width="56" height="57" viewBox="0 0 56 57" fill="none" xmlns="http://www.w3.org/2000/svg">
<rect y="0.630859" width="56" height="56" rx="28" fill="#666B75"/>
<path fill-rule="evenodd" clip-rule="evenodd" d="M26.9582 37.6175H28.7587C28.7587 37.6175 29.3028 37.5576 29.5811 37.2584C29.8374 36.9828 29.828 36.4662 29.828 36.4662C29.828 36.4662 29.7934 34.0471 30.9146 33.6896C32.0201 33.3384 33.4401 36.0284 34.9434 37.0631C36.0819 37.8459 36.9452 37.6742 36.9452 37.6742L40.9677 37.6175C40.9677 37.6175 43.0718 37.4868 42.0748 35.8299C41.993 35.6945 41.493 34.6046 39.0839 32.3635C36.5615 30.0184 36.8996 30.3979 39.9377 26.3424C41.7886 23.8729 42.5277 22.3641 42.2965 21.7184C42.0764 21.1026 40.7146 21.2648 40.7146 21.2648L36.1857 21.2931C36.1857 21.2931 35.8492 21.2475 35.6007 21.3971C35.357 21.5435 35.2013 21.8837 35.2013 21.8837C35.2013 21.8837 34.4842 23.7957 33.5281 25.4211C31.5106 28.8513 30.7039 29.0324 30.3752 28.8198C29.6079 28.3237 29.7997 26.8259 29.7997 25.7613C29.7997 22.4365 30.3029 21.0506 28.82 20.6915C28.3278 20.5718 27.9646 20.4946 26.705 20.4805C25.0884 20.4647 23.7203 20.4852 22.9467 20.8663C22.4309 21.1183 22.033 21.6821 22.2768 21.7152C22.5756 21.7546 23.2533 21.8979 23.6134 22.3877C24.0773 23.0208 24.0616 24.4399 24.0616 24.4399C24.0616 24.4399 24.3289 28.3536 23.4389 28.8387C22.8287 29.1726 21.9906 28.4922 20.1932 25.3785C19.2717 23.7847 18.5766 22.0223 18.5766 22.0223C18.5766 22.0223 18.443 21.6932 18.2039 21.5168C17.913 21.3026 17.5089 21.2349 17.5089 21.2349L13.2002 21.2664C13.2002 21.2664 12.5539 21.2837 12.3164 21.5656C12.1057 21.816 12.2991 22.3342 12.2991 22.3342C12.2991 22.3342 15.669 30.231 19.484 34.2093C22.9844 37.8569 26.9582 37.6175 26.9582 37.6175Z" fill="white"/>
</svg>
